# xmcd
#
# Track frame offsets: 
#        150
#        23962
#        39680
#        77197
#        102807
#        118130
#        130782
#        153257
#        171082
#        191837
#        212935
#
# Disc length: 3124 seconds
#
# Revision: 0
# Processed by: cddbd v1.5.1PL0 Copyright (c) Steve Scherf et al.
# Submitted via: ExactAudioCopy v0.95a5
#
DISCID=960c320b
DTITLE=Jerre Peterson - Tumbleweed
DYEAR=2000
DGENRE=Blues
TTITLE0=Old Man Con
TTITLE1=Dirty White Girls
TTITLE2=Night Song
TTITLE3=Junkyard Acid Blues
TTITLE4=The Last Straw
TTITLE5=Standing in the Shadow of a Rainbow
TTITLE6=Butter my Buscuits
TTITLE7=Dirty Packing Mama
TTITLE8=Ivy's Shuffle
TTITLE9=Shit Happens
TTITLE10=Eyes
EXTD=
EXTT0=
EXTT1=
EXTT2=
EXTT3=
EXTT4=
EXTT5=
EXTT6=
EXTT7=
EXTT8=
EXTT9=
EXTT10=
PLAYORDER=
